# xmcd CD database file
#
# Track frame offsets:
#	150
#	19174
#	30387
#	49287
#	67391
#	83800
#	100352
#	114520
#	126072
#	138850
#	153678
#	170605
#	204272
#	235748
#	253606
#	276159
#	292600
#	314260
#
# Disc length: 4520 seconds
#
# Revision: 0
# Processed by: cddbd v1.5.1PL2 Copyright (c) Steve Scherf et al.
# Submitted via: CDex 1.51
#
DISCID=fb11a612
DTITLE=Grant Clarkson - Cool Blues - Poolside
DYEAR=2003
DGENRE=Jazz
TTITLE0=Better Git It in Your Soul
TTITLE1=Cool Blues
TTITLE2=If I Were A Bell
TTITLE3=Rhythm-A-Ning
TTITLE4=Softly As A Morning Sunrise
TTITLE5=Things Ain't What They Used To Be
TTITLE6=The Way You Look Tonight
TTITLE7=Twisted
TTITLE8=Yardbird Suite
TTITLE9=A Call To All Demons
TTITLE10=Alice In Wonderland
TTITLE11=Come Sunday
TTITLE12=Corcovado
TTITLE13=Here's That Rainy Day
TTITLE14=I Got It Bad
TTITLE15=Inchworm
TTITLE16=Long Ago And Far Away
TTITLE17=Summer Samba
EXTD=YEAR: 2003
EXTT0=
EXTT1=
EXTT2=
EXTT3=
EXTT4=
EXTT5=
EXTT6=
EXTT7=
EXTT8=
EXTT9=
EXTT10=
EXTT11=
EXTT12=
EXTT13=
EXTT14=
EXTT15=
EXTT16=
EXTT17=
PLAYORDER=
